<?xml version="1.0" encoding="UTF-8" standalone="no"?>
<!DOCTYPE svg PUBLIC "-//W3C//DTD SVG 1.1//EN" "http://www.w3.org/Graphics/SVG/1.1/DTD/svg11.dtd">
<svg version="1.1" xmlns="http://www.w3.org/2000/svg" xmlns:xlink="http://www.w3.org/1999/xlink" preserveAspectRatio="xMidYMid meet" viewBox="452.0081661477814 192.2443509116332 279.37736893022253 253.60683643174667" width="275.38" height="249.61"><defs><path d="M634.1 240.71C634.1 240.71 612.44 166.52 565.77 203.64C557.8 210.88 493.98 268.8 486 276.04C486 276.04 446 307.86 493.55 326.59C503.46 328.88 582.76 347.2 592.67 349.49C592.67 349.49 658.76 368.51 648.65 300.85C648.03 298.03 644.91 283.93 639.31 258.56" id="d3qv0aTEXr"></path><path d="M714.7 344.41C714.7 344.41 739.05 263.49 674.09 271.93C662.45 274.2 569.35 292.38 557.71 294.66C557.71 294.66 502.03 301.89 534.51 345.79C542.25 353.44 604.1 414.64 611.83 422.29C611.83 422.29 661.16 476.78 692.21 408.34C693.32 405.38 698.86 390.56 708.84 363.89" id="aVgrFgAvB"></path><path d="M623.83 289.32C623.83 289.32 578.66 214.95 538.72 268.92C532.16 278.74 479.62 357.31 473.06 367.13C473.06 367.13 438.83 413.39 496 419.91C507.45 419.89 599.03 419.73 610.48 419.71C610.48 419.71 687.9 421.13 657.18 350.48C655.68 347.6 648.18 333.18 634.69 307.22" id="h1iAr0LUtg"></path><path d="M724.71 377.75C720.76 374.94 715.28 375.86 712.47 379.8C709.65 383.75 710.57 389.23 714.51 392.04C718.46 394.85 723.94 393.94 726.75 389.99C729.57 386.05 728.65 380.57 724.71 377.75" id="bwEvaDyEF"></path><path d="M710.74 394.76C709.3 393.74 707.32 394.07 706.3 395.5C705.27 396.93 705.61 398.92 707.04 399.94C708.47 400.96 710.46 400.63 711.48 399.2C712.5 397.77 712.17 395.78 710.74 394.76" id="b13RIkWawc"></path><path d="M474.61 335.17C470.67 332.35 465.19 333.27 462.37 337.22C459.56 341.16 460.48 346.64 464.42 349.45C468.37 352.27 473.85 351.35 476.66 347.41C479.48 343.46 478.56 337.98 474.61 335.17" id="b85CeHBgW"></path><path d="M482.93 328.98C481.5 327.96 479.52 328.29 478.49 329.73C477.47 331.16 477.81 333.15 479.24 334.17C480.67 335.19 482.66 334.86 483.68 333.42C484.7 331.99 484.37 330 482.93 328.98" id="c18uVpbC26"></path><path d="M651.52 265.57C652 267.26 653.77 268.24 655.46 267.76C657.15 267.27 658.12 265.51 657.64 263.82C657.16 262.13 655.39 261.15 653.7 261.64C652.01 262.12 651.03 263.88 651.52 265.57" id="b8DIvm3NA"></path><path d="M646.23 250.55C647.57 255.21 652.42 257.91 657.08 256.57C661.74 255.23 664.44 250.37 663.1 245.72C661.76 241.06 656.9 238.36 652.25 239.7C647.59 241.04 644.89 245.89 646.23 250.55" id="b3oBOEYgfK"></path><path d="M512.82 268.82C512.82 268.82 564.12 324.27 561.46 350.64C558.81 377.01 515.52 381.91 453.01 374.25C453.01 374.25 487.66 389.04 535.22 388.3C582.77 387.56 625.14 349.49 598.1 249.05C598.1 249.05 602.14 320.97 584.53 328.89C584.53 328.89 578.84 332.7 551.24 302.02C527.53 275.66 512.82 268.82 512.82 268.82" id="c95N40B2p"></path><path d="M581.1 320.66C586.65 319.74 590.01 311.48 588.62 302.22C587.23 292.96 581.61 286.21 576.07 287.14C570.53 288.06 567.16 296.32 568.55 305.58C569.94 314.84 575.56 321.59 581.1 320.66" id="h4XNxKVxa"></path><path d="M596.66 363.17C596.66 363.17 592.42 375.49 567.17 386.26C567.17 386.26 640.43 395.02 705.7 332.15C705.7 332.15 668.47 364.27 625.2 366.1C625.2 366.1 602.52 367.23 596.66 363.17" id="e1iKpnbqk"></path></defs><g><g><use xlink:href="#d3qv0aTEXr" opacity="1" fill="#1b407f" fill-opacity="1"></use><g><use xlink:href="#d3qv0aTEXr" opacity="1" fill-opacity="0" stroke="#000000" stroke-width="1" stroke-opacity="0"></use></g></g><g><use xlink:href="#aVgrFgAvB" opacity="1" fill="#fccb06" fill-opacity="1"></use><g><use xlink:href="#aVgrFgAvB" opacity="1" fill-opacity="0" stroke="#000000" stroke-width="1" stroke-opacity="0"></use></g></g><g><use xlink:href="#h1iAr0LUtg" opacity="1" fill="#c40d3e" fill-opacity="1"></use><g><use xlink:href="#h1iAr0LUtg" opacity="1" fill-opacity="0" stroke="#000000" stroke-width="1" stroke-opacity="0"></use></g></g><g><use xlink:href="#bwEvaDyEF" opacity="1" fill="#fccb06" fill-opacity="1"></use><g><use xlink:href="#bwEvaDyEF" opacity="1" fill-opacity="0" stroke="#000000" stroke-width="1" stroke-opacity="0"></use></g></g><g><use xlink:href="#b13RIkWawc" opacity="1" fill="#fccb06" fill-opacity="1"></use><g><use xlink:href="#b13RIkWawc" opacity="1" fill-opacity="0" stroke="#000000" stroke-width="1" stroke-opacity="0"></use></g></g><g><use xlink:href="#b85CeHBgW" opacity="1" fill="#c40d3e" fill-opacity="1"></use><g><use xlink:href="#b85CeHBgW" opacity="1" fill-opacity="0" stroke="#000000" stroke-width="1" stroke-opacity="0"></use></g></g><g><use xlink:href="#c18uVpbC26" opacity="1" fill="#c40d3e" fill-opacity="1"></use><g><use xlink:href="#c18uVpbC26" opacity="1" fill-opacity="0" stroke="#000000" stroke-width="1" stroke-opacity="0"></use></g></g><g><use xlink:href="#b8DIvm3NA" opacity="1" fill="#1b407f" fill-opacity="1"></use><g><use xlink:href="#b8DIvm3NA" opacity="1" fill-opacity="0" stroke="#000000" stroke-width="1" stroke-opacity="0"></use></g></g><g><use xlink:href="#b3oBOEYgfK" opacity="1" fill="#1b407f" fill-opacity="1"></use><g><use xlink:href="#b3oBOEYgfK" opacity="1" fill-opacity="0" stroke="#000000" stroke-width="1" stroke-opacity="0"></use></g></g><g><use xlink:href="#c95N40B2p" opacity="1" fill="#ffffff" fill-opacity="1"></use><g><use xlink:href="#c95N40B2p" opacity="1" fill-opacity="0" stroke="#000000" stroke-width="1" stroke-opacity="0"></use></g></g><g><use xlink:href="#h4XNxKVxa" opacity="1" fill="#ffffff" fill-opacity="1"></use><g><use xlink:href="#h4XNxKVxa" opacity="1" fill-opacity="0" stroke="#000000" stroke-width="1" stroke-opacity="0"></use></g></g><g><use xlink:href="#e1iKpnbqk" opacity="1" fill="#ffffff" fill-opacity="1"></use><g><use xlink:href="#e1iKpnbqk" opacity="1" fill-opacity="0" stroke="#000000" stroke-width="1" stroke-opacity="0"></use></g></g></g></svg>